<svg width="161" height="160" viewBox="0 0 161 160" fill="none" xmlns="http://www.w3.org/2000/svg">
<g clip-path="url(#clip0_9702_2264)">
<path d="M154.952 154.694V90.2959L114.136 70.704V20.8162H104.34V7.75496H83.1158V0.408081H78.218V7.75496H56.9936V20.8162H47.1977V66.5306H37.4017V52.6531H32.5039V66.5306H14.5442V79.5918H6.38112V154.694H0.666748V159.592H160.667V154.694H154.952ZM47.1974 97.5509H16.9933V102.449H47.1974V110.612H16.9933V115.51H47.1974V123.673H16.9933V128.571H47.1974V136.734H16.9933V141.632H47.1974V154.693H11.2789V84.4896H47.1974V97.5509ZM47.1974 79.5918H19.4424V71.4287H47.1974V79.5918ZM61.8911 12.6531H99.4421V20.8162H61.8911V12.6531ZM109.238 154.694H52.0952V25.7143H109.238V154.694H109.238ZM150.055 141.632H140.259V133.469H150.055V141.632ZM150.055 115.51H140.259V107.347H150.055V115.51ZM150.055 102.449H120.667V120.408H150.055V128.571H120.667V146.53H150.055V154.693H114.136V76.1368L150.055 93.3778V102.449ZM135.36 107.347V115.51H125.565V107.347H135.36ZM135.36 133.469V141.632H125.565V133.469H135.36Z" fill="#E94D35"/>
<path d="M126.381 91.0203H119.851V95.9181H126.381V91.0203Z" fill="#E94D35"/>
<path d="M85.565 35.5103H75.769V40.4081H85.565V35.5103Z" fill="#E94D35"/>
<path d="M85.565 48.5715H75.769V53.4693H85.565V48.5715Z" fill="#E94D35"/>
<path d="M85.565 61.6328H75.769V66.5306H85.565V61.6328Z" fill="#E94D35"/>
<path d="M85.565 74.6938H75.769V79.592H85.565V74.6938Z" fill="#E94D35"/>
<path d="M101.891 74.6938H92.0952V79.592H101.891V74.6938Z" fill="#E94D35"/>
<path d="M69.2383 74.6938H59.4424V79.592H69.2383V74.6938Z" fill="#E94D35"/>
<path d="M85.565 87.7549H75.769V92.6527H85.565V87.7549Z" fill="#E94D35"/>
<path d="M101.891 87.7549H92.0952V92.6527H101.891V87.7549Z" fill="#E94D35"/>
<path d="M69.2383 87.7549H59.4424V92.6527H69.2383V87.7549Z" fill="#E94D35"/>
<path d="M85.565 100.816H75.769V105.714H85.565V100.816Z" fill="#E94D35"/>
<path d="M101.891 100.816H92.0952V105.714H101.891V100.816Z" fill="#E94D35"/>
<path d="M69.2383 100.816H59.4424V105.714H69.2383V100.816Z" fill="#E94D35"/>
<path d="M85.565 113.877H75.769V118.775H85.565V113.877Z" fill="#E94D35"/>
<path d="M101.891 113.877H92.0952V118.775H101.891V113.877Z" fill="#E94D35"/>
<path d="M69.2383 113.877H59.4424V118.775H69.2383V113.877Z" fill="#E94D35"/>
<path d="M85.565 126.939H75.769V131.837H85.565V126.939Z" fill="#E94D35"/>
<path d="M101.891 126.939H92.0952V131.837H101.891V126.939Z" fill="#E94D35"/>
<path d="M69.2383 126.939H59.4424V131.837H69.2383V126.939Z" fill="#E94D35"/>
<path d="M85.565 140H75.769V144.898H85.565V140Z" fill="#E94D35"/>
<path d="M101.891 140H92.0952V144.898H101.891V140Z" fill="#E94D35"/>
<path d="M69.2383 140H59.4424V144.898H69.2383V140Z" fill="#E94D35"/>
<path d="M101.891 61.6328H92.0952V66.5306H101.891V61.6328Z" fill="#E94D35"/>
<path d="M69.2383 61.6328H59.4424V66.5306H69.2383V61.6328Z" fill="#E94D35"/>
<path d="M101.891 48.5715H92.0952V53.4693H101.891V48.5715Z" fill="#E94D35"/>
<path d="M69.2383 48.5715H59.4424V53.4693H69.2383V48.5715Z" fill="#E94D35"/>
<path d="M101.891 35.5103H92.0952V40.4081H101.891V35.5103Z" fill="#E94D35"/>
<path d="M69.2383 35.5103H59.4424V40.4081H69.2383V35.5103Z" fill="#E94D35"/>
</g>
<defs>
<clipPath id="clip0_9702_2264">
<rect width="160" height="160" fill="white" transform="translate(0.666748)"/>
</clipPath>
</defs>
</svg>
