<svg width="160" height="160" viewBox="0 0 160 160" fill="none" xmlns="http://www.w3.org/2000/svg">
<g clip-path="url(#clip0_9702_3056)">
<path d="M153.402 141.856V128.66H136.907V46.1856H150.103V22.1972L90.3416 0H67.9969L9.89688 22.2147V46.1856H23.0928V128.66H6.59781V141.856H0V160H160V141.856H153.402ZM14.8453 41.2372V26.3919H108.041V21.4434H25.7703L68.9106 4.94844H89.4525L145.155 25.6378V41.2369H14.8453V41.2372ZM125.361 119.587V46.1856H131.959V128.66H113.814V46.1856H120.412V119.587H125.361ZM108.866 46.1856V128.66H94.0206V46.1856H108.866ZM82.4744 119.587V46.1856H89.0722V128.66H70.9278V46.1856H77.5256V119.587H82.4744ZM65.9794 46.1856V128.66H51.1341V46.1856H65.9794ZM39.5875 119.587V46.1856H46.1853V128.66H28.0413V46.1856H34.6391V119.587H39.5875ZM11.5463 133.608H148.453V141.856H11.5463V133.608ZM155.052 155.052H4.94844V146.804H155.052V155.052Z" fill="black"/>
<path d="M84.9484 11.5461H75.0515V16.4946H84.9484V11.5461Z" fill="black"/>
<path d="M27.2162 31.3403H20.6184V36.2888H27.2162V31.3403Z" fill="black"/>
<path d="M139.381 31.3403H132.783V36.2888H139.381V31.3403Z" fill="black"/>
<path d="M93.1958 31.3403H66.804V36.2888H93.1958V31.3403Z" fill="black"/>
</g>
<defs>
<clipPath id="clip0_9702_3056">
<rect width="160" height="160" fill="white"/>
</clipPath>
</defs>
</svg>
