<svg width="160" height="160" viewBox="0 0 160 160" fill="none" xmlns="http://www.w3.org/2000/svg">
<g clip-path="url(#clip0_9900_26)">
<path d="M154.286 154.694V90.296L113.469 70.7041V20.8163H103.673V7.75508H82.4491V0.408203H77.5513V7.75508H56.3269V20.8163H46.5309V66.5307H36.735V52.6532H31.8372V66.5307H13.8775V79.5919H5.71437V154.694H0V159.592H160V154.694H154.286ZM46.5306 97.551H16.3266V102.449H46.5306V110.612H16.3266V115.51H46.5306V123.673H16.3266V128.571H46.5306V136.734H16.3266V141.632H46.5306V154.693H10.6122V84.4898H46.5306V97.551ZM46.5306 79.5919H18.7756V71.4288H46.5306V79.5919ZM61.2244 12.6532H98.7753V20.8163H61.2244V12.6532ZM108.572 154.694H51.4284V25.7145H108.571V154.694H108.572ZM149.388 141.633H139.592V133.469H149.388V141.633ZM149.388 115.51H139.592V107.347H149.388V115.51ZM149.388 102.449H120V120.408H149.388V128.571H120V146.53H149.388V154.694H113.469V76.137L149.388 93.3779V102.449ZM134.694 107.347V115.51H124.898V107.347H134.694ZM134.694 133.469V141.633H124.898V133.469H134.694Z" fill="#161513"/>
<path d="M125.714 91.0205H119.184V95.9183H125.714V91.0205Z" fill="#161513"/>
<path d="M84.8981 35.5103H75.1022V40.4081H84.8981V35.5103Z" fill="#161513"/>
<path d="M84.8981 48.5715H75.1022V53.4693H84.8981V48.5715Z" fill="#161513"/>
<path d="M84.8981 61.6328H75.1022V66.5306H84.8981V61.6328Z" fill="#161513"/>
<path d="M84.8981 74.6938H75.1022V79.592H84.8981V74.6938Z" fill="#161513"/>
<path d="M101.224 74.6938H91.4284V79.592H101.224V74.6938Z" fill="#161513"/>
<path d="M68.5716 74.6938H58.7756V79.592H68.5716V74.6938Z" fill="#161513"/>
<path d="M84.8981 87.7549H75.1022V92.6527H84.8981V87.7549Z" fill="#161513"/>
<path d="M101.224 87.7549H91.4284V92.6527H101.224V87.7549Z" fill="#161513"/>
<path d="M68.5716 87.7549H58.7756V92.6527H68.5716V87.7549Z" fill="#161513"/>
<path d="M84.8981 100.816H75.1022V105.714H84.8981V100.816Z" fill="#161513"/>
<path d="M101.224 100.816H91.4284V105.714H101.224V100.816Z" fill="#161513"/>
<path d="M68.5716 100.816H58.7756V105.714H68.5716V100.816Z" fill="#161513"/>
<path d="M84.8981 113.877H75.1022V118.775H84.8981V113.877Z" fill="#161513"/>
<path d="M101.224 113.877H91.4284V118.775H101.224V113.877Z" fill="#161513"/>
<path d="M68.5716 113.877H58.7756V118.775H68.5716V113.877Z" fill="#161513"/>
<path d="M84.8981 126.939H75.1022V131.837H84.8981V126.939Z" fill="#161513"/>
<path d="M101.224 126.939H91.4284V131.837H101.224V126.939Z" fill="#161513"/>
<path d="M68.5716 126.939H58.7756V131.837H68.5716V126.939Z" fill="#161513"/>
<path d="M84.8981 140H75.1022V144.898H84.8981V140Z" fill="#161513"/>
<path d="M101.224 140H91.4284V144.898H101.224V140Z" fill="#161513"/>
<path d="M68.5716 140H58.7756V144.898H68.5716V140Z" fill="#161513"/>
<path d="M101.224 61.6328H91.4284V66.5306H101.224V61.6328Z" fill="#161513"/>
<path d="M68.5716 61.6328H58.7756V66.5306H68.5716V61.6328Z" fill="#161513"/>
<path d="M101.224 48.5715H91.4284V53.4693H101.224V48.5715Z" fill="#161513"/>
<path d="M68.5716 48.5715H58.7756V53.4693H68.5716V48.5715Z" fill="#161513"/>
<path d="M101.224 35.5103H91.4284V40.4081H101.224V35.5103Z" fill="#161513"/>
<path d="M68.5716 35.5103H58.7756V40.4081H68.5716V35.5103Z" fill="#161513"/>
</g>
<defs>
<clipPath id="clip0_9900_26">
<rect width="160" height="160" fill="white"/>
</clipPath>
</defs>
</svg>
