<svg width="160" height="160" viewBox="0 0 160 160" fill="none" xmlns="http://www.w3.org/2000/svg">
<path d="M154.286 137.959V26.9385H103.673V92.2448H90.6122V35.102H98.7753V17.1426H53.0613V35.1016H61.2244V92.2445H38.3672V35.102H46.5303V17.1426H0.81625V35.1016H8.97937V92.2445H5.71437V137.959H0V142.857H160V137.959H154.286ZM57.9591 30.2038V22.0407H93.8775V30.2038H85.7144V41.6323H66.1225V35.1016H75.1022V30.2038H57.9591ZM66.1225 54.6935V46.5304H85.7144V54.6935H66.1225ZM85.7144 59.5916V92.2448H66.1225V59.5916H85.7144ZM5.71437 30.2038V22.0407H41.6328V30.2038H33.4697V41.6323H13.8775V35.1016H22.8572V30.2038H5.71437ZM13.8775 54.6935V46.5304H33.4694V54.6935H13.8775ZM33.4694 59.5916V92.2448H13.8775V59.5916H33.4694ZM103.673 137.959H10.6122V97.1426H103.673V137.959ZM149.388 137.959H108.572V31.8366H149.388V137.959Z" fill="#E94D35"/>
<path d="M17.1428 103.673V121.632H97.1428V103.673H17.1428ZM35.1022 116.735H22.0409V108.571H35.1022V116.735ZM54.6938 116.735H40V108.571H54.6938V116.735ZM74.2856 116.735H59.5919V108.571H74.2856V116.735ZM92.245 116.735H79.1838V108.571H92.245V116.735Z" fill="#E94D35"/>
<path d="M97.959 126.531H16.3265V131.429H97.959V126.531Z" fill="#E94D35"/>
<path d="M143.673 38.3677H114.286V43.2655H143.673V38.3677Z" fill="#E94D35"/>
<path d="M143.673 51.4282H114.286V56.3263H143.673V51.4282Z" fill="#E94D35"/>
<path d="M143.673 64.4897H114.286V69.3876H143.673V64.4897Z" fill="#E94D35"/>
<path d="M143.673 77.5508H114.286V82.4486H143.673V77.5508Z" fill="#E94D35"/>
<path d="M143.673 90.6123H114.286V95.5101H143.673V90.6123Z" fill="#E94D35"/>
<path d="M143.673 103.673H114.286V108.571H143.673V103.673Z" fill="#E94D35"/>
<path d="M143.673 116.735H114.286V121.633H143.673V116.735Z" fill="#E94D35"/>
</svg>
