<svg width="160" height="160" viewBox="0 0 160 160" fill="none" xmlns="http://www.w3.org/2000/svg">
<path d="M154.286 153.877V117.959H141.224V108.979H136.327V117.959H123.265V132.653H97.1428V59.1837H115.102V28.1631H103.673V15.1022H82.4491V1.22437H77.5513V15.1019H56.3269V28.1631H44.8984V59.1834H62.8575V132.653H36.735V117.959H23.6734V108.98H18.7756V117.959H5.71437V153.878H0V158.776H160V153.878H154.286V153.877ZM31.8369 153.877H10.6122V122.857H31.8366V153.877H31.8369ZM62.8572 153.877H36.7347V137.551H62.8572V153.877ZM61.2244 20H98.7753V28.1631H61.2244V20ZM49.7959 54.2856V33.0612H110.204V54.2856H49.7959ZM92.245 153.877H67.7553V132.653H92.245V153.877ZM92.245 127.755H67.7553V116.327H92.245V127.755ZM92.245 111.428H67.7553V96.7347H92.245V111.428ZM92.245 91.8369H67.7553V80.4084H92.245V91.8369ZM92.245 75.5103H67.7553V59.1837H92.245V75.5103ZM123.265 153.877H97.1428V137.551H123.265V153.877ZM149.388 153.877H128.163V122.857H149.388V153.877Z" fill="black"/>
<path d="M84.8982 41.2244H75.1023V46.1222H84.8982V41.2244Z" fill="black"/>
<path d="M101.224 41.2244H91.4285V46.1222H101.224V41.2244Z" fill="black"/>
<path d="M68.5716 41.2244H58.7756V46.1222H68.5716V41.2244Z" fill="black"/>
<path d="M27.7551 127.755H14.6938V132.653H27.7551V127.755Z" fill="black"/>
<path d="M27.7551 137.551H14.6938V142.449H27.7551V137.551Z" fill="black"/>
<path d="M145.306 127.755H132.245V132.653H145.306V127.755Z" fill="black"/>
<path d="M145.306 137.551H132.245V142.449H145.306V137.551Z" fill="black"/>
<path d="M58.7752 144.082H40.8162V148.979H58.7752V144.082Z" fill="black"/>
<path d="M119.183 144.082H101.224V148.979H119.183V144.082Z" fill="black"/>
<path d="M78.3675 137.551H71.8369V142.449H78.3675V137.551Z" fill="black"/>
<path d="M88.1632 137.551H81.6326V142.449H88.1632V137.551Z" fill="black"/>
<path d="M44.0816 72.245H38.3222C37.9147 68.5769 34.7957 65.7144 31.0204 65.7144H14.6938C10.6425 65.7144 7.34692 69.0103 7.34692 73.0612C7.34692 77.1122 10.6425 80.4081 14.6938 80.4081H20.4532C20.8607 84.0762 23.9797 86.9387 27.755 86.9387H44.0816C48.1329 86.9387 51.4285 83.6428 51.4285 79.5919C51.4285 75.5409 48.1329 72.245 44.0816 72.245ZM44.0816 82.0409H27.755C26.4044 82.0409 25.306 80.9425 25.306 79.5919C25.306 79.3625 25.3572 79.1097 25.4882 78.6897L26.4822 75.5103H14.6938C13.3432 75.5103 12.2447 74.4119 12.2447 73.0612C12.2447 71.7106 13.3432 70.6122 14.6938 70.6122H31.0204C32.371 70.6122 33.4694 71.7106 33.4694 73.0612C33.4694 73.2906 33.4182 73.5434 33.2872 73.9634L32.2932 77.1428H44.0816C45.4322 77.1428 46.5307 78.2412 46.5307 79.5919C46.5307 80.9425 45.4322 82.0409 44.0816 82.0409Z" fill="black"/>
<path d="M145.306 72.245H139.547C139.139 68.5769 136.02 65.7144 132.245 65.7144H115.918C111.867 65.7144 108.572 69.0103 108.572 73.0612C108.572 77.1122 111.867 80.4081 115.918 80.4081H121.678C122.085 84.0762 125.204 86.9387 128.98 86.9387H145.306C149.357 86.9387 152.653 83.6428 152.653 79.5919C152.653 75.5409 149.357 72.245 145.306 72.245ZM145.306 82.0409H128.98C127.629 82.0409 126.531 80.9425 126.531 79.5919C126.531 79.3625 126.582 79.1097 126.713 78.6897L127.707 75.5103H115.918C114.568 75.5103 113.469 74.4119 113.469 73.0612C113.469 71.7106 114.568 70.6122 115.918 70.6122H132.245C133.596 70.6122 134.694 71.7106 134.694 73.0612C134.694 73.2906 134.643 73.5434 134.512 73.9634L133.518 77.1428H145.306C146.657 77.1428 147.755 78.2412 147.755 79.5919C147.755 80.9425 146.657 82.0409 145.306 82.0409Z" fill="black"/>
</svg>
