<svg width="160" height="160" viewBox="0 0 160 160" fill="none" xmlns="http://www.w3.org/2000/svg">
<g clip-path="url(#clip0_9900_446)">
<path d="M152.653 154.286V120H133.061V28.5717V26.1227V0.816406H75.9184V23.6736H26.9388V120H7.34688V154.286H0V159.184H160V154.286H152.653ZM26.9388 154.286H12.245V124.898H26.9388V154.286ZM88.9797 154.286H71.0206V139.592H77.5513V146.939H82.4491V139.592H88.9797V154.286ZM128.163 154.286H93.8775V139.592H99.5919V134.694H60.4081V139.592H66.1225V154.285H31.8369V128.163H128.163V154.286H128.163ZM41.6325 123.265V108.572H56.3263V123.265H41.6325ZM72.6531 123.265V108.572H87.3469V123.265H72.6531ZM103.673 123.265V108.572H118.367V123.265H103.673ZM128.163 123.265H123.265V103.674H98.7756V123.265H92.245V103.674H67.7553V123.265H61.2247V103.674H36.735V123.265H31.8372V98.7758H128.164V123.265H128.163ZM128.163 93.8777H31.8369V88.9798H128.163V93.8777H128.163ZM41.6325 84.0817V69.388H56.3263V84.0817H41.6325ZM72.6531 84.0817V69.388H87.3469V84.0817H72.6531ZM103.673 84.0817V69.388H118.367V84.0817H103.673ZM128.163 84.0817H123.265V64.4898H98.7756V84.0817H92.245V64.4898H67.7553V84.0817H61.2247V64.4898H36.735V84.0817H31.8372V57.9592H128.164V84.0817H128.163ZM41.6325 53.0614V38.3677H56.3263V53.0614H41.6325ZM72.6531 53.0614V38.3677H87.3469V53.0614H72.6531ZM103.673 53.0614V38.3677H118.367V53.0614H103.673ZM128.163 53.0614H123.265V33.4695H98.7756V53.0614H92.245V33.4695H67.7553V53.0614H61.2247V33.4695H36.735V53.0614H31.8372V28.5717H128.164V53.0614H128.163ZM128.163 23.6736H80.8162V5.71453H128.163V23.6736ZM147.755 154.286H133.061V124.898H147.755V154.286Z" fill="#E94D35"/>
<path d="M93.0612 12.2451H86.5306V17.1429H93.0612V12.2451Z" fill="#E94D35"/>
<path d="M102.857 12.2451H96.3266V17.1429H102.857V12.2451Z" fill="#E94D35"/>
<path d="M112.653 12.2451H106.122V17.1429H112.653V12.2451Z" fill="#E94D35"/>
<path d="M122.449 12.2451H115.918V17.1429H122.449V12.2451Z" fill="#E94D35"/>
<path d="M36.7347 133.061V149.388H54.6938V133.061H36.7347ZM49.7959 144.489H41.6328V137.959H49.7959V144.489Z" fill="#E94D35"/>
<path d="M105.306 133.061V149.388H123.265V133.061H105.306ZM118.367 144.489H110.204V137.959H118.367V144.489Z" fill="#E94D35"/>
</g>
<defs>
<clipPath id="clip0_9900_446">
<rect width="160" height="160" fill="white"/>
</clipPath>
</defs>
</svg>
