<svg width="160" height="160" viewBox="0 0 160 160" fill="none" xmlns="http://www.w3.org/2000/svg">
<path d="M154.286 153.878V117.959H141.224V108.98H136.327V117.959H123.265V132.653H97.1428V59.184H115.102V28.1634H103.673V15.1024H82.4491V1.22461H77.5513V15.1021H56.3269V28.1634H44.8984V59.1837H62.8575V132.653H36.735V117.96H23.6734V108.98H18.7756V117.96H5.71437V153.878H0V158.776H160V153.878H154.286V153.878ZM31.8369 153.878H10.6122V122.857H31.8366V153.878H31.8369ZM62.8572 153.878H36.7347V137.551H62.8572V153.878ZM61.2244 20.0002H98.7753V28.1634H61.2244V20.0002ZM49.7959 54.2859V33.0615H110.204V54.2859H49.7959ZM92.245 153.878H67.7553V132.653H92.245V153.878ZM92.245 127.755H67.7553V116.327H92.245V127.755ZM92.245 111.429H67.7553V96.7349H92.245V111.429ZM92.245 91.8371H67.7553V80.4087H92.245V91.8371ZM92.245 75.5105H67.7553V59.184H92.245V75.5105ZM123.265 153.878H97.1428V137.551H123.265V153.878ZM149.388 153.878H128.163V122.857H149.388V153.878Z" fill="#E94D35"/>
<path d="M84.8981 41.2246H75.1022V46.1224H84.8981V41.2246Z" fill="#E94D35"/>
<path d="M101.224 41.2246H91.4285V46.1224H101.224V41.2246Z" fill="#E94D35"/>
<path d="M68.5716 41.2246H58.7756V46.1224H68.5716V41.2246Z" fill="#E94D35"/>
<path d="M27.755 127.755H14.6938V132.653H27.755V127.755Z" fill="#E94D35"/>
<path d="M27.755 137.551H14.6938V142.449H27.755V137.551Z" fill="#E94D35"/>
<path d="M145.306 127.755H132.245V132.653H145.306V127.755Z" fill="#E94D35"/>
<path d="M145.306 137.551H132.245V142.449H145.306V137.551Z" fill="#E94D35"/>
<path d="M58.7753 144.082H40.8162V148.979H58.7753V144.082Z" fill="#E94D35"/>
<path d="M119.183 144.082H101.224V148.979H119.183V144.082Z" fill="#E94D35"/>
<path d="M78.3675 137.551H71.8369V142.449H78.3675V137.551Z" fill="#E94D35"/>
<path d="M88.1631 137.551H81.6325V142.449H88.1631V137.551Z" fill="#E94D35"/>
<path d="M44.0816 72.245H38.3222C37.9147 68.5769 34.7956 65.7144 31.0203 65.7144H14.6937C10.6425 65.7144 7.34686 69.0103 7.34686 73.0612C7.34686 77.1122 10.6425 80.4081 14.6937 80.4081H20.4531C20.8606 84.0762 23.9797 86.9387 27.755 86.9387H44.0816C48.1328 86.9387 51.4284 83.6428 51.4284 79.5919C51.4284 75.5409 48.1328 72.245 44.0816 72.245ZM44.0816 82.0409H27.755C26.4044 82.0409 25.3059 80.9425 25.3059 79.5919C25.3059 79.3625 25.3572 79.1097 25.4881 78.6897L26.4822 75.5103H14.6937C13.3431 75.5103 12.2447 74.4119 12.2447 73.0612C12.2447 71.7106 13.3431 70.6122 14.6937 70.6122H31.0203C32.3709 70.6122 33.4694 71.7106 33.4694 73.0612C33.4694 73.2906 33.4181 73.5434 33.2872 73.9634L32.2931 77.1428H44.0816C45.4322 77.1428 46.5306 78.2412 46.5306 79.5919C46.5306 80.9425 45.4322 82.0409 44.0816 82.0409Z" fill="#E94D35"/>
<path d="M145.306 72.245H139.547C139.139 68.5769 136.02 65.7144 132.245 65.7144H115.918C111.867 65.7144 108.572 69.0103 108.572 73.0612C108.572 77.1122 111.867 80.4081 115.918 80.4081H121.678C122.085 84.0762 125.204 86.9387 128.98 86.9387H145.306C149.357 86.9387 152.653 83.6428 152.653 79.5919C152.653 75.5409 149.357 72.245 145.306 72.245ZM145.306 82.0409H128.98C127.629 82.0409 126.531 80.9425 126.531 79.5919C126.531 79.3625 126.582 79.1097 126.713 78.6897L127.707 75.5103H115.918C114.568 75.5103 113.469 74.4119 113.469 73.0612C113.469 71.7106 114.568 70.6122 115.918 70.6122H132.245C133.596 70.6122 134.694 71.7106 134.694 73.0612C134.694 73.2906 134.643 73.5434 134.512 73.9634L133.518 77.1428H145.306C146.657 77.1428 147.755 78.2412 147.755 79.5919C147.755 80.9425 146.657 82.0409 145.306 82.0409Z" fill="#E94D35"/>
</svg>
