<svg width="160" height="143" viewBox="0 0 160 143" fill="none" xmlns="http://www.w3.org/2000/svg">
<path d="M154.286 137.959V26.9388H103.673V92.245H90.6122V35.1022H98.7753V17.1428H53.0613V35.1019H61.2244V92.2447H38.3672V35.1022H46.5303V17.1428H0.81625V35.1019H8.97937V92.2447H5.71437V137.959H0V142.857H160V137.959H154.286ZM57.9591 30.2041V22.0409H93.8775V30.2041H85.7144V41.6325H66.1225V35.1019H75.1022V30.2041H57.9591ZM66.1225 54.6938V46.5306H85.7144V54.6938H66.1225ZM85.7144 59.5919V92.245H66.1225V59.5919H85.7144ZM5.71437 30.2041V22.0409H41.6328V30.2041H33.4697V41.6325H13.8775V35.1019H22.8572V30.2041H5.71437ZM13.8775 54.6938V46.5306H33.4694V54.6938H13.8775ZM33.4694 59.5919V92.245H13.8775V59.5919H33.4694ZM103.673 137.959H10.6122V97.1428H103.673V137.959ZM149.388 137.959H108.572V31.8369H149.388V137.959Z" fill="black"/>
<path d="M17.1428 103.673V121.632H97.1428V103.673H17.1428ZM35.1022 116.735H22.0409V108.571H35.1022V116.735ZM54.6938 116.735H40V108.571H54.6938V116.735ZM74.2856 116.735H59.5919V108.571H74.2856V116.735ZM92.245 116.735H79.1838V108.571H92.245V116.735Z" fill="black"/>
<path d="M97.9592 126.531H16.3267V131.428H97.9592V126.531Z" fill="black"/>
<path d="M143.673 38.3674H114.286V43.2652H143.673V38.3674Z" fill="black"/>
<path d="M143.673 51.4285H114.286V56.3266H143.673V51.4285Z" fill="black"/>
<path d="M143.673 64.4897H114.286V69.3876H143.673V64.4897Z" fill="black"/>
<path d="M143.673 77.551H114.286V82.4488H143.673V77.551Z" fill="black"/>
<path d="M143.673 90.6123H114.286V95.5101H143.673V90.6123Z" fill="black"/>
<path d="M143.673 103.673H114.286V108.571H143.673V103.673Z" fill="black"/>
<path d="M143.673 116.735H114.286V121.632H143.673V116.735Z" fill="black"/>
</svg>
