<svg width="160" height="160" viewBox="0 0 160 160" fill="none" xmlns="http://www.w3.org/2000/svg">
<path d="M149.388 137.143V17.959H131.429V35.918H126.531V17.959H108.572V53.8774H105.306V68.5712H90.6125V53.8774H79.1841V40.8162H102.041V19.5918H74.2863V53.8774H69.3884V68.5712H54.6947V53.8774H51.4294V17.959H33.4703V35.918H28.5716V17.959H10.6122V137.143H0V142.041H160V137.143H149.388ZM79.1837 24.4896H97.1428V35.918H79.1837V24.4896ZM33.4694 137.143H15.5103V124.081H22.8572V119.184H15.5103V84.8977H22.8572V79.9999H15.5103V52.2449H22.8572V47.3468H15.5103V22.8571H23.6734V40.8162H38.3672V22.8571H46.5303V53.8774H33.4691V137.143H33.4694ZM100.408 137.143H59.5919V103.673C59.5919 103.231 59.9656 102.857 60.4081 102.857H77.5509V129.796H82.4487V102.857H99.5916C100.034 102.857 100.408 103.231 100.408 103.673V137.143H100.408ZM121.632 79.9999H114.286V84.8977H121.632V106.122H114.286V111.02H121.632V137.142H111.02H105.306V103.673C105.306 100.523 102.743 97.959 99.5919 97.959H60.4081C57.2575 97.959 54.6938 100.523 54.6938 103.673V137.143H38.3672V124.081H45.7141V119.184H38.3672V97.9593H45.7141V93.0615H38.3672V58.7756H49.7956V73.4693H74.2853V58.7756H85.7137V73.4693H110.203V58.7756H121.632V79.9999H121.632ZM144.49 47.3468H137.143V52.2446H144.49V79.9999H137.143V84.8977H144.49V119.183H137.143V124.081H144.49V137.142H126.531V53.8774H113.469V22.8571H121.632V40.8162H136.326V22.8571H144.489V47.3468H144.49Z" fill="#E94D35"/>
<path d="M93.0613 117.551H86.5306V122.449H93.0613V117.551Z" fill="#E94D35"/>
<path d="M73.4693 117.551H66.9387V122.449H73.4693V117.551Z" fill="#E94D35"/>
<path d="M84.8981 83.2651H75.1022V88.163H84.8981V83.2651Z" fill="#E94D35"/>
<path d="M101.224 83.2651H91.4285V88.163H101.224V83.2651Z" fill="#E94D35"/>
<path d="M68.5716 83.2651H58.7756V88.163H68.5716V83.2651Z" fill="#E94D35"/>
<path d="M29.3878 99.5918H19.5919V104.49H29.3878V99.5918Z" fill="#E94D35"/>
<path d="M29.3878 63.6733H19.5919V68.5711H29.3878V63.6733Z" fill="#E94D35"/>
<path d="M140.408 99.5918H130.612V104.49H140.408V99.5918Z" fill="#E94D35"/>
<path d="M140.408 63.6733H130.612V68.5711H140.408V63.6733Z" fill="#E94D35"/>
</svg>
