<svg width="56" height="56" viewBox="0 0 56 56" fill="none" xmlns="http://www.w3.org/2000/svg">
<path d="M0.7 28C0.7 12.9226 12.9226 0.7 28 0.7C43.0774 0.7 55.3 12.9226 55.3 28C55.3 43.0774 43.0774 55.3 28 55.3C12.9226 55.3 0.7 43.0774 0.7 28Z" stroke="#969186" stroke-width="1.4"/>
<path d="M23.3462 21.4691C23.3459 21.9641 23.1483 22.4388 22.7969 22.7886C22.4455 23.1385 21.969 23.3349 21.4722 23.3347C20.9754 23.3344 20.4991 23.1375 20.148 22.7873C19.797 22.4371 19.5998 21.9622 19.6001 21.4672C19.6003 20.9721 19.7979 20.4975 20.1494 20.1476C20.5008 19.7977 20.9773 19.6013 21.4741 19.6016C21.9708 19.6018 22.4471 19.7987 22.7982 20.1489C23.1493 20.4991 23.3464 20.974 23.3462 21.4691ZM23.4024 24.7169H19.6563V36.4016H23.4024V24.7169ZM29.3211 24.7169H25.5938V36.4016H29.2836V30.2699C29.2836 26.8541 33.7509 26.5368 33.7509 30.2699V36.4016H37.4501V29.0006C37.4501 23.2423 30.8383 23.4569 29.2836 26.2848L29.3211 24.7169Z" fill="#BDB8AD"/>
</svg>
