<svg width="56" height="56" viewBox="0 0 56 56" fill="none" xmlns="http://www.w3.org/2000/svg">
<path d="M0.7 28C0.7 12.9226 12.9226 0.7 28 0.7C43.0774 0.7 55.3 12.9226 55.3 28C55.3 43.0774 43.0774 55.3 28 55.3C12.9226 55.3 0.7 43.0774 0.7 28Z" stroke="#969186" stroke-width="1.4"/>
<path d="M28 24.8515C27.1646 24.8515 26.3634 25.1833 25.7726 25.7741C25.1819 26.3648 24.85 27.166 24.85 28.0015C24.85 28.8369 25.1819 29.6381 25.7726 30.2289C26.3634 30.8196 27.1646 31.1515 28 31.1515C28.8354 31.1515 29.6366 30.8196 30.2274 30.2289C30.8181 29.6381 31.15 28.8369 31.15 28.0015C31.15 27.166 30.8181 26.3648 30.2274 25.7741C29.6366 25.1833 28.8354 24.8515 28 24.8515ZM28 22.7515C29.3924 22.7515 30.7278 23.3046 31.7124 24.2892C32.6969 25.2737 33.25 26.6091 33.25 28.0015C33.25 29.3938 32.6969 30.7293 31.7124 31.7137C30.7278 32.6984 29.3924 33.2515 28 33.2515C26.6076 33.2515 25.2722 32.6984 24.2877 31.7137C23.3031 30.7293 22.75 29.3938 22.75 28.0015C22.75 26.6091 23.3031 25.2737 24.2877 24.2892C25.2722 23.3046 26.6076 22.7515 28 22.7515ZM34.825 22.489C34.825 22.8371 34.6867 23.1709 34.4406 23.417C34.1944 23.6632 33.8605 23.8015 33.5125 23.8015C33.1645 23.8015 32.8306 23.6632 32.5844 23.417C32.3383 23.1709 32.2 22.8371 32.2 22.489C32.2 22.1409 32.3383 21.807 32.5844 21.5609C32.8306 21.3147 33.1645 21.1765 33.5125 21.1765C33.8605 21.1765 34.1944 21.3147 34.4406 21.5609C34.6867 21.807 34.825 22.1409 34.825 22.489ZM28 19.6015C25.4023 19.6015 24.9781 19.6088 23.7695 19.6624C22.9463 19.7012 22.394 19.8115 21.8816 20.011C21.4259 20.1874 21.0973 20.3984 20.7476 20.7491C20.419 21.0666 20.1663 21.4543 20.0084 21.8831C19.8089 22.3976 19.6987 22.9489 19.6609 23.771C19.6063 24.9302 19.6 25.3355 19.6 28.0015C19.6 30.5992 19.6073 31.0234 19.6609 32.2319C19.6997 33.0541 19.81 33.6074 20.0084 34.1188C20.1869 34.5755 20.397 34.9042 20.7456 35.2528C21.0994 35.6056 21.4281 35.8166 21.8795 35.9909C22.3983 36.1915 22.9505 36.3028 23.7695 36.3406C24.9287 36.3952 25.334 36.4015 28 36.4015C30.5977 36.4015 31.0219 36.3941 32.2304 36.3406C33.0515 36.3017 33.6049 36.1915 34.1173 35.993C34.572 35.8156 34.9027 35.6045 35.2513 35.2559C35.6052 34.9021 35.8162 34.5734 35.9905 34.1219C36.19 33.6043 36.3013 33.0509 36.3391 32.2319C36.3937 31.0727 36.4 30.6674 36.4 28.0015C36.4 25.4038 36.3926 24.9796 36.3391 23.771C36.3002 22.9499 36.19 22.3955 35.9905 21.8831C35.8323 21.4547 35.58 21.0672 35.2523 20.7491C34.9349 20.4203 34.5472 20.1676 34.1183 20.0099C33.6038 19.8104 33.0515 19.7002 32.2304 19.6624C31.0712 19.6078 30.666 19.6015 28 19.6015ZM28 17.5015C30.8529 17.5015 31.2088 17.512 32.3281 17.5645C33.4463 17.617 34.2076 17.7923 34.8775 18.0527C35.5705 18.3194 36.1543 18.6806 36.7381 19.2634C37.2721 19.7883 37.6852 20.4232 37.9488 21.124C38.2081 21.7928 38.3845 22.5551 38.437 23.6734C38.4864 24.7927 38.5 25.1486 38.5 28.0015C38.5 30.8543 38.4895 31.2103 38.437 32.3296C38.3845 33.4478 38.2081 34.2091 37.9488 34.879C37.6859 35.5801 37.2726 36.2152 36.7381 36.7396C36.2131 37.2733 35.5782 37.6864 34.8775 37.9502C34.2086 38.2096 33.4463 38.386 32.3281 38.4385C31.2088 38.4878 30.8529 38.5015 28 38.5015C25.1472 38.5015 24.7912 38.491 23.6719 38.4385C22.5536 38.386 21.7924 38.2096 21.1225 37.9502C20.4214 37.6871 19.7864 37.274 19.2619 36.7396C18.7279 36.2147 18.3147 35.5798 18.0513 34.879C17.7909 34.2101 17.6155 33.4478 17.563 32.3296C17.5137 31.2103 17.5 30.8543 17.5 28.0015C17.5 25.1486 17.5105 24.7927 17.563 23.6734C17.6155 22.5541 17.7909 21.7939 18.0513 21.124C18.314 20.4227 18.7272 19.7877 19.2619 19.2634C19.7866 18.7292 20.4215 18.316 21.1225 18.0527C21.7924 17.7923 22.5526 17.617 23.6719 17.5645C24.7912 17.5151 25.1472 17.5015 28 17.5015Z" fill="#BDB8AD"/>
</svg>
