<svg width="56" height="56" viewBox="0 0 56 56" fill="none" xmlns="http://www.w3.org/2000/svg">
<path d="M0.7 28C0.7 12.9226 12.9226 0.7 28 0.7C43.0774 0.7 55.3 12.9226 55.3 28C55.3 43.0774 43.0774 55.3 28 55.3C12.9226 55.3 0.7 43.0774 0.7 28Z" stroke="#969186" stroke-width="1.4"/>
<g clip-path="url(#clip0_9718_188)">
<path fill-rule="evenodd" clip-rule="evenodd" d="M39.231 21.1344C39.6226 21.526 39.9049 22.0133 40.0498 22.5477C40.5842 24.5208 40.5999 28.6131 40.5999 28.6131C40.5999 28.6131 40.5999 32.7214 40.0664 34.6788C39.9214 35.2133 39.6391 35.7005 39.2475 36.0921C38.8559 36.4837 38.3687 36.766 37.8342 36.911C35.8769 37.4449 27.9999 37.4449 27.9999 37.4449C27.9999 37.4449 20.1229 37.4449 18.166 36.9106C17.6315 36.7656 17.1443 36.4833 16.7527 36.0917C16.3611 35.7001 16.0788 35.2129 15.9338 34.6784C15.3999 32.7053 15.3999 28.6131 15.3999 28.6131C15.3999 28.6131 15.3999 24.5208 15.9177 22.5635C16.0627 22.029 16.345 21.5418 16.7365 21.1502C17.1281 20.7586 17.6154 20.4763 18.1499 20.3313C20.1072 19.797 27.9842 19.7812 27.9842 19.7812C27.9842 19.7812 35.8607 19.7812 37.8177 20.3156C38.3521 20.4605 38.8394 20.7428 39.231 21.1344ZM32.0112 28.6128L25.4769 32.3976L25.4765 24.8281L32.0112 28.6128Z" fill="#BDB8AD"/>
</g>
<defs>
<clipPath id="clip0_9718_188">
<rect width="25.2" height="25.2" fill="white" transform="translate(15.3999 16.0127)"/>
</clipPath>
</defs>
</svg>
