<svg width="110" height="70" viewBox="0 0 110 70" fill="none" xmlns="http://www.w3.org/2000/svg">
<g clip-path="url(#clip0_9718_142)">
<path fill-rule="evenodd" clip-rule="evenodd" d="M24.4568 26.2964C23.3333 27.9779 23.3333 30.3186 23.3333 35.0002C23.3333 39.6817 23.3333 42.0225 24.4568 43.704C24.9432 44.4319 25.5682 45.0569 26.2961 45.5433C27.9776 46.6668 30.3184 46.6668 34.9999 46.6668C39.6815 46.6668 42.0222 46.6668 43.7037 45.5433C44.4317 45.0569 45.0567 44.4319 45.5431 43.704C46.6666 42.0225 46.6666 39.6817 46.6666 35.0002C46.6666 30.3186 46.6666 27.9779 45.5431 26.2964C45.0567 25.5684 44.4317 24.9434 43.7037 24.457C42.0222 23.3335 39.6815 23.3335 34.9999 23.3335C30.3184 23.3335 27.9776 23.3335 26.2961 24.457C25.5682 24.9434 24.9432 25.5684 24.4568 26.2964ZM36.451 28.8892C34.7291 28.8892 33.3333 30.285 33.3333 32.0069C33.3333 32.8758 32.7083 33.6189 31.8522 33.7677L31.1111 33.8966V36.1039L31.8522 36.2328C32.7083 36.3817 33.3333 37.1247 33.3333 37.9937C33.3333 39.7155 34.7291 41.1114 36.451 41.1114H37.7777V38.8892H36.451C35.9564 38.8892 35.5555 38.4882 35.5555 37.9937C35.5555 36.8153 35.0432 35.7402 34.2137 35.0003C35.0432 34.2604 35.5555 33.1852 35.5555 32.0069C35.5555 31.5123 35.9564 31.1114 36.451 31.1114H37.7777V28.8892H36.451Z" fill="white"/>
</g>
<path d="M54.0126 37.2653V37.4494C54.0126 38.6848 54.5727 39.6708 55.6929 40.4074C56.8209 41.144 58.3747 41.5123 60.3543 41.5123C62.3416 41.5123 63.8724 41.144 64.9466 40.4074C66.0208 39.6631 66.5579 38.7078 66.5579 37.5415C66.5579 36.521 66.1397 35.7077 65.3034 35.1015C64.467 34.4877 63.2125 34.0541 61.5398 33.8009C59.8747 33.5477 58.7967 33.3214 58.3056 33.1219C57.8145 32.9224 57.569 32.6423 57.569 32.2817C57.569 31.9134 57.7992 31.6256 58.2596 31.4185C58.7199 31.2036 59.4489 31.0962 60.4464 31.0962C61.4362 31.0962 62.1805 31.2343 62.6792 31.5105C63.1779 31.7868 63.4273 32.1819 63.4273 32.696V32.9607H66.3968V32.673C66.3968 31.5604 65.8597 30.6205 64.7854 29.8532C63.7112 29.0859 62.2649 28.7022 60.4464 28.7022C58.6279 28.7022 57.1968 29.059 56.1533 29.7726C55.1098 30.4785 54.588 31.3801 54.588 32.4773C54.588 33.4211 54.9832 34.2076 55.7735 34.8368C56.5638 35.4583 57.7953 35.8956 59.4681 36.1489C61.1331 36.4021 62.2265 36.6207 62.7483 36.8049C63.2777 36.989 63.5424 37.2998 63.5424 37.7372C63.5424 38.1745 63.2739 38.516 62.7367 38.7615C62.1996 39.007 61.4055 39.1298 60.3543 39.1298C59.3108 39.1298 58.4897 39.0109 57.8913 38.773C57.2928 38.5352 56.9935 38.1362 56.9935 37.576V37.2653H54.0126ZM68.8483 41.167H71.8408V33.6513C72.2244 33.0068 72.7308 32.4773 73.36 32.063C73.9892 31.6486 74.6874 31.4415 75.4547 31.4415C76.3601 31.4415 77.0891 31.6908 77.6415 32.1896C78.194 32.6807 78.4779 33.5017 78.4932 34.6526V41.167H81.4742V33.6513C81.8502 33.0068 82.3719 32.4773 83.0395 32.063C83.707 31.6486 84.4283 31.4415 85.2033 31.4415C86.101 31.4415 86.8069 31.6908 87.321 32.1896C87.8428 32.6807 88.1113 33.4978 88.1267 34.6411V41.167H91.1191V34.6987C91.1191 32.5886 90.6549 31.0808 89.7265 30.1754C88.8057 29.27 87.6241 28.8173 86.1816 28.8173C85.138 28.8173 84.1291 29.0206 83.1546 29.4273C82.1801 29.8263 81.4128 30.4248 80.8527 31.2228H80.8412C80.4882 30.4401 79.9243 29.8455 79.1493 29.4388C78.3743 29.0245 77.4919 28.8173 76.5021 28.8173C75.5737 28.8173 74.6951 28.9784 73.8664 29.3007C73.0454 29.623 72.3548 30.1447 71.7947 30.866H71.7717L71.6681 29.059H68.8483V41.167ZM93.8929 44.2861C94.5758 44.8692 95.4659 45.3296 96.5631 45.6672C97.668 46.0125 98.8267 46.1851 100.039 46.1851C102.019 46.1851 103.695 45.6825 105.069 44.6774C106.442 43.6799 107.129 42.2412 107.129 40.3613V29.059H104.309L104.205 30.6473H104.182C103.814 30.1179 103.212 29.6844 102.375 29.3467C101.539 29.0015 100.607 28.8288 99.5786 28.8288C97.7064 28.8288 96.1833 29.4005 95.0094 30.5437C93.8431 31.687 93.2599 33.1487 93.2599 34.9288V35.2972C93.2599 37.0696 93.8431 38.5313 95.0094 39.6823C96.1756 40.8255 97.6949 41.3972 99.5671 41.3972C100.603 41.3972 101.516 41.2514 102.306 40.9598C103.097 40.6682 103.711 40.2577 104.148 39.7283V40.3728C104.148 41.4087 103.741 42.2067 102.928 42.7668C102.115 43.3346 101.117 43.6185 99.9354 43.6185C98.9456 43.6185 98.0363 43.4727 97.2077 43.1812C96.3867 42.8973 95.7613 42.5558 95.3316 42.1568L93.8929 44.2861ZM96.3214 35.3202V34.8943C96.3214 33.9045 96.6667 33.0797 97.3573 32.4198C98.0555 31.7599 99.0837 31.43 100.442 31.43C101.301 31.43 102.061 31.6026 102.721 31.9479C103.381 32.2855 103.856 32.7766 104.148 33.4211V36.8049C103.872 37.3343 103.4 37.7985 102.732 38.1975C102.072 38.5965 101.309 38.796 100.442 38.796C99.0914 38.796 98.067 38.4661 97.3688 37.8062C96.6706 37.1387 96.3214 36.31 96.3214 35.3202Z" fill="white"/>
<defs>
<clipPath id="clip0_9718_142">
<rect width="23.3333" height="23.3333" fill="white" transform="translate(23.3333 23.3335)"/>
</clipPath>
</defs>
</svg>
