<svg width="28" height="32" viewBox="0 0 28 32" fill="none" xmlns="http://www.w3.org/2000/svg">
<path fill-rule="evenodd" clip-rule="evenodd" d="M13.1441 31.0223C13.1441 31.0223 13.1445 31.0226 14.0001 30L13.1441 31.0223L14.0001 31.7384L14.8556 31.0226L14.0001 30C14.8556 31.0226 14.8556 31.0226 14.8556 31.0226L14.867 31.0131L14.8954 30.9892C14.9199 30.9684 14.9555 30.9383 15.0013 30.899C15.093 30.8206 15.226 30.706 15.3943 30.5586C15.7308 30.2638 16.2093 29.8371 16.7824 29.3048C17.9269 28.242 19.4573 26.7507 20.9918 25.0432C22.5217 23.3408 24.0825 21.3939 25.2681 19.4199C26.4355 17.4761 27.3334 15.353 27.3334 13.3333C27.3334 5.96954 21.3639 0 14.0001 0C6.63628 0 0.666748 5.96954 0.666748 13.3333C0.666748 15.353 1.56462 17.4761 2.73205 19.4199C3.91761 21.3939 5.47846 23.3408 7.00837 25.0432C8.5429 26.7507 10.0732 28.242 11.2178 29.3048C11.7909 29.8371 12.2693 30.2638 12.6059 30.5586C12.7742 30.706 12.9071 30.8206 12.9988 30.899C13.0447 30.9383 13.0803 30.9684 13.1048 30.9892L13.1332 31.0131L13.1441 31.0223ZM3.33341 13.3333C3.33341 7.4423 8.10904 2.66667 14.0001 2.66667C19.8911 2.66667 24.6667 7.4423 24.6667 13.3333C24.6667 14.6274 24.0646 16.2444 22.9821 18.047C21.9176 19.8193 20.4785 21.6249 19.0084 23.2607C17.5429 24.8914 16.0732 26.3242 14.9678 27.3508C14.5992 27.6931 14.272 27.9894 14.0001 28.2319C13.7282 27.9894 13.401 27.6931 13.0324 27.3508C11.9269 26.3242 10.4573 24.8914 8.99179 23.2607C7.5217 21.6249 6.08255 19.8193 5.01811 18.047C3.93554 16.2444 3.33341 14.6274 3.33341 13.3333Z" fill="white"/>
<path fill-rule="evenodd" clip-rule="evenodd" d="M14.0001 2.66667C8.10904 2.66667 3.33341 7.4423 3.33341 13.3333C3.33341 14.6274 3.93554 16.2444 5.01811 18.047C6.08255 19.8193 7.5217 21.6249 8.99179 23.2607C10.4573 24.8914 11.9269 26.3242 13.0324 27.3508C13.401 27.6931 13.7282 27.9894 14.0001 28.2319C14.272 27.9894 14.5992 27.6931 14.9678 27.3508C16.0732 26.3242 17.5429 24.8914 19.0084 23.2607C20.4785 21.6249 21.9176 19.8193 22.9821 18.047C24.0646 16.2444 24.6667 14.6274 24.6667 13.3333C24.6667 7.4423 19.8911 2.66667 14.0001 2.66667ZM14.0001 16C16.2092 16 18.0001 14.2091 18.0001 12C18.0001 9.79086 16.2092 8 14.0001 8C11.7909 8 10.0001 9.79086 10.0001 12C10.0001 14.2091 11.7909 16 14.0001 16Z" fill="white"/>
</svg>
